#!OML:ASF F:\VICON\USERDATA\INSTALL\rory3\rory3.ASF
:FULLY-SPECIFIED
:DEGREES
2956
root -13.2815 17.6017 14.0432 542.952 13.7589 -1259.36
lowerback 11.7409 4.27151 2.59456
upperback 0.930705 6.08931 -0.505458
thorax -5.25719 2.97828 -2.94776
lowerneck -19.686 -4.00501 -12.8387
upperneck 33.3442 -6.68416 7.83605
head 15.8177 -4.17557 4.07966
rclavicle 2.12451e-014 -5.76476e-015
rhumerus -27.2315 -4.92299 -87.3972
rradius 35.1819
rwrist 0.643498
rhand -19.049 9.62455
rfingers 7.12502
rthumb 7.25789 -20.231
lclavicle 2.12451e-014 -5.76476e-015
lhumerus -43.1468 9.34993 80.7866
lradius 26.6016
lwrist -8.19648
lhand -16.0621 29.7009
lfingers 7.12502
lthumb 10.1402 59.4365
rfemur 16.2744 -2.2686 25.1593
rtibia 3.48694
rfoot -12.1846 -13.4525
rtoes -11.223
lfemur -27.5369 -3.12843 -18.0838
ltibia 19.1122
lfoot -5.89449 -3.65611
ltoes -11.8366
2957
root -13.2768 17.5946 13.9334 542.921 13.7826 -1259.41
lowerback 11.6775 4.24599 2.62719
upperback 0.927727 6.05755 -0.495876
thorax -5.22477 2.96251 -2.94534
lowerneck -19.6632 -3.97757 -12.8735
upperneck 33.3706 -6.63161 7.80483
head 15.8175 -4.1668 4.0828
rclavicle 1.21507e-014 -2.5842e-015
rhumerus -27.371 -4.71549 -87.4849
rradius 35.2566
rwrist 0.57903
rhand -19.0134 9.31052
rfingers 7.12502
rthumb 7.29221 -20.5438
lclavicle 1.21507e-014 -2.5842e-015
lhumerus -43.2982 9.49427 80.7954
lradius 26.751
lwrist -7.81944
lhand -16.3447 29.5844
lfingers 7.12502
lthumb 9.86765 59.3331
rfemur 16.7697 -2.14035 25.0417
rtibia 3.33801
rfoot -11.5463 -13.5675
rtoes -13.6661
lfemur -27.2085 -2.99725 -18.2589
ltibia 19.2186
lfoot -5.29814 -4.18209
ltoes -10.4035
2958
root -13.2722 17.5982 13.8194 542.885 13.8993 -1259.45
lowerback 11.7121 4.26706 2.61329
upperback 0.855774 6.08272 -0.476697
thorax -5.32179 2.97017 -2.92878
lowerneck -19.7658 -6.50511 -11.9686
upperneck 33.9459 -5.53919 6.64794
head 16.0133 -2.2237 4.07138
rclavicle -5.5113e-014 4.17448e-015
rhumerus -27.6233 -4.70502 -87.503
rradius 35.2414
rwrist 0.658535
rhand -18.9424 9.27703
rfingers 7.12502
rthumb 7.36073 -20.5749
lclavicle -5.5113e-014 4.17448e-015
lhumerus -43.4732 9.69617 80.6955
lradius 26.7278
lwrist -7.93486
lhand -16.3436 29.4802
lfingers 7.12502
lthumb 9.86868 59.2289
rfemur 17.4332 -1.91681 24.9212
rtibia 2.88452
rfoot -11.3475 -13.5991
rtoes -12.9652
lfemur -26.9029 -2.9991 -18.3725
ltibia 19.4029
lfoot -4.25227 -4.40683
ltoes -9.6003
2959
root -13.2662 17.6085 13.6994 542.853 14.0692 -1259.55
lowerback 11.6456 4.33015 2.5455
upperback 0.811634 6.1511 -0.513082
thorax -5.33 3.003 -2.93562
lowerneck -19.7923 -6.54033 -11.9216
upperneck 34.0165 -5.57703 6.58742
head 16.0553 -2.23912 4.03273
rclavicle 2.80535e-014 -3.57812e-015
rhumerus -27.8216 -4.84743 -87.5231
rradius 35.0796
rwrist 0.851338
rhand -19.0604 9.79703
rfingers 7.12502
rthumb 7.24682 -20.0589
lclavicle 2.80535e-014 -3.57812e-015
lhumerus -43.6438 9.70344 80.6257
lradius 26.7151
lwrist -8.00273
lhand -16.447 29.4628
lfingers 7.12502
lthumb 9.76891 59.2162
rfemur 18.0255 -1.63776 24.7211
rtibia 2.50336
rfoot -11.0547 -13.5822
rtoes -11.9016
lfemur -26.6124 -2.91582 -18.5896
ltibia 19.5796
lfoot -3.05912 -4.52911
ltoes -10.1904
2960
root -13.2595 17.6205 13.5817 542.79 14.1058 -1259.75
lowerback 11.5757 4.3433 2.40137
upperback 0.814342 6.1442 -0.570899
thorax -5.29721 3.00311 -2.90859
lowerneck -19.8037 -6.58555 -11.8736
upperneck 34.0515 -5.64094 6.53507
head 16.0796 -2.26606 3.98993
rclavicle -6.07784e-014 2.98177e-015
rhumerus -27.9141 -4.76497 -87.6086
rradius 34.9914
rwrist 0.969595
rhand -19.2096 9.87752
rfingers 7.12502
rthumb 7.10282 -19.9833
lclavicle -6.07784e-014 2.98177e-015
lhumerus -43.7046 9.69583 80.5985
lradius 26.7077
lwrist -7.89657
lhand -16.2961 29.7624
lfingers 7.12502
lthumb 9.91445 59.5089
rfemur 18.3041 -1.49574 24.426
rtibia 2.75609
rfoot -10.8001 -13.556
rtoes -12.1999
lfemur -26.3547 -2.69382 -18.978
ltibia 19.7156
lfoot -2.07087 -5.00088
ltoes -11.0937
2961
root -13.2514 17.6338 13.4687 542.687 13.9792 -1260.09
lowerback 11.5884 4.29425 2.09864
upperback 0.797281 6.0355 -0.644568
thorax -5.35169 2.95399 -2.80463
lowerneck -19.8476 -6.61144 -11.845
upperneck 34.13 -5.67462 6.52402
head 16.1319 -2.27526 3.97755
rclavicle 8.14272e-014 -1.82882e-014
rhumerus -27.9432 -4.81392 -87.652
rradius 34.8178
rwrist 1.20778
rhand -19.1366 9.67278
rfingers 7.12502
rthumb 7.17327 -20.1857
lclavicle 8.14272e-014 -1.82882e-014
lhumerus -43.7504 9.7475 80.551
lradius 26.8091
lwrist -7.61937
lhand -16.2574 29.4996
lfingers 7.12502
lthumb 9.95188 59.2444
rfemur 18.0002 -1.52487 23.9826
rtibia 4.19169
rfoot -11.1917 -13.5365
rtoes -12.5435
lfemur -26.0504 -2.3355 -19.5781
ltibia 19.7251
lfoot -1.29318 -5.97999
ltoes -10.1181
2962
root -13.2425 17.6445 13.3548 542.604 13.8034 -1260.31
lowerback 11.5338 4.2195 1.90244
upperback 0.81661 5.90861 -0.675302
thorax -5.32456 2.897 -2.70353
lowerneck -19.931 -6.62415 -11.9033
upperneck 34.138 -5.71189 6.63763
head 16.1679 -2.28358 4.03046
rclavicle -7.18358e-014 7.15625e-015
rhumerus -27.9476 -5.06474 -87.6173
rradius 34.531
rwrist 1.5061
rhand -19.0665 9.78882
rfingers 7.12502
rthumb 7.241 -20.0673
lclavicle -7.18358e-014 7.15625e-015
lhumerus -43.7442 9.84886 80.5106
lradius 26.8703
lwrist -7.53531
lhand -16.2106 29.4506
lfingers 7.12502
lthumb 9.99699 59.1931
rfemur 17.3174 -1.61048 23.6784
rtibia 6.35491
rfoot -11.8559 -13.6738
rtoes -13.0435
lfemur -25.6317 -2.02876 -20.0456
ltibia 19.562
lfoot -0.743467 -7.00651
ltoes -8.39862
2963
root -13.2334 17.6568 13.2389 542.491 13.6917 -1260.62
lowerback 11.4927 4.21418 1.64664
upperback 0.837649 5.86557 -0.739909
thorax -5.30041 2.88241 -2.61835
lowerneck -19.9329 -6.66961 -11.9678
upperneck 34.0997 -5.79626 6.72632
head 16.1672 -2.3163 4.0618
rclavicle -6.65929e-014 1.70955e-014
rhumerus -28.0407 -5.56192 -87.5003
rradius 34.2157
rwrist 1.96532
rhand -19.1031 10.3227
rfingers 7.12502
rthumb 7.2056 -19.5346
lclavicle -6.65929e-014 1.70955e-014
lhumerus -43.6437 10.2442 80.301
lradius 26.7146
lwrist -8.03972
lhand -16.0298 29.6604
lfingers 7.12502
lthumb 10.1714 59.3946
rfemur 16.6826 -1.63983 23.311
rtibia 8.42575
rfoot -12.3319 -13.8467
rtoes -13.1658
lfemur -25.1497 -1.78578 -20.553
ltibia 19.3773
lfoot -0.389993 -7.71135
ltoes -6.87945
2964
root -13.2247 17.6752 13.1199 542.358 13.6412 -1261.06
lowerback 11.4544 4.2338 1.25197
upperback 0.827676 5.83459 -0.86078
thorax -5.31745 2.87486 -2.51886
lowerneck -19.8158 -6.71001 -11.9887
upperneck 34.0287 -5.86947 6.73403
head 16.1153 -2.3499 4.05087
rclavicle -2.25621e-014 8.94531e-015
rhumerus -28.2094 -5.93775 -87.4305
rradius 33.934
rwrist 2.22367
rhand -19.071 10.6817
rfingers 7.12502
rthumb 7.23663 -19.1745
lclavicle -2.25621e-014 8.94531e-015
lhumerus -43.5113 10.7289 79.9802
lradius 26.4889
lwrist -8.42098
lhand -16.1802 29.2316
lfingers 7.12502
lthumb 10.0263 58.9727
rfemur 16.1511 -1.60987 22.7916
rtibia 10.226
rfoot -11.9754 -13.9828
rtoes -15.4095
lfemur -24.691 -1.61235 -21.1869
ltibia 19.3046
lfoot -0.106205 -7.94572
ltoes -6.24902
2965
root -13.2183 17.6894 12.9996 542.255 13.433 -1261.32
lowerback 11.3945 4.16539 1.04204
upperback 0.835026 5.71515 -0.894334
thorax -5.29884 2.82126 -2.4143
lowerneck -19.6592 -6.74037 -12.0424
upperneck 33.9511 -5.92056 6.7493
head 16.0501 -2.3777 4.05358
rclavicle -8.0632e-014 -1.19271e-015
rhumerus -28.4163 -6.05282 -87.3817
rradius 33.7847
rwrist 2.23295
rhand -19.0848 10.6979
rfingers 7.12502
rthumb 7.22334 -19.1588
lclavicle -8.0632e-014 -1.19271e-015
lhumerus -43.4114 11.3574 79.6565
lradius 26.2926
lwrist -8.8288
lhand -16.367 28.7104
lfingers 7.12502
lthumb 9.84606 58.4602
rfemur 15.6424 -1.52669 22.5176
rtibia 12.0565
rfoot -11.5129 -14.1573
rtoes -16.7282
lfemur -24.2154 -1.44094 -21.6624
ltibia 19.2425
lfoot 0.000493391 -8.06589
ltoes -6.63087
2966
root -13.2133 17.6972 12.8787 542.068 13.0624 -1261.45
lowerback 11.4233 4.05211 1.00898
upperback 0.879279 5.56418 -0.881371
thorax -5.2792 2.74969 -2.36002
lowerneck -19.4824 -6.78096 -12.164
upperneck 33.8752 -5.98851 6.84146
head 15.9904 -2.40957 4.09971
rclavicle 5.68524e-014 3.37934e-015
rhumerus -28.6804 -6.16559 -87.3033
rradius 33.7259
rwrist 2.21178
rhand -19.2945 10.6341
rfingers 7.12502
rthumb 7.0209 -19.2295
lclavicle 5.68524e-014 3.37934e-015
lhumerus -43.3206 11.6095 79.5647
lradius 26.2075
lwrist -9.02581
lhand -16.3055 28.6703
lfingers 7.12502
lthumb 9.90539 58.4172
rfemur 15.2669 -1.43975 22.4184
rtibia 13.9206
rfoot -11.4837 -14.4358
rtoes -15.6008
lfemur -23.6056 -1.29369 -22.0122
ltibia 19.1543
lfoot -0.111488 -8.36965
ltoes -6.58274
2967
root -13.2056 17.7093 12.7559 541.925 12.7482 -1261.56
lowerback 11.435 3.95104 0.967567
upperback 0.879996 5.42533 -0.877468
thorax -5.29496 2.68217 -2.31311
lowerneck -19.4096 -6.81644 -12.1719
upperneck 33.8726 -6.03272 6.81187
head 15.9775 -2.43229 4.07971
rclavicle 1.04859e-014 5.56597e-015
rhumerus -29.016 -6.34804 -87.2074
rradius 33.6749
rwrist 2.24795
rhand -19.3941 10.6832
rfingers 7.12502
rthumb 6.92471 -19.1835
lclavicle 1.04859e-014 5.56597e-015
lhumerus -43.3517 11.6847 79.5127
lradius 26.1344
lwrist -9.44842
lhand -16.2527 28.471
lfingers 7.12502
lthumb 9.9564 58.2155
rfemur 14.8599 -1.42059 22.2994
rtibia 15.6993
rfoot -11.3075 -14.5746
rtoes -14.7257
lfemur -23.0319 -1.18923 -22.3063
ltibia 19.1222
lfoot -0.404617 -8.74065
ltoes -6.49741
2968
root -13.1983 17.7267 12.6299 541.807 12.6052 -1261.72
lowerback 11.3797 3.89198 0.82425
upperback 0.901779 5.32899 -0.886134
thorax -5.25735 2.63922 -2.22257
lowerneck -19.5544 -6.84537 -12.1253
upperneck 33.9858 -6.07948 6.83054
head 16.0725 -2.43981 4.07584
rclavicle -7.8023e-015 -5.96354e-015
rhumerus -29.314 -6.55276 -87.101
rradius 33.5864
rwrist 2.07552
rhand -19.019 10.6103
rfingers 7.12502
rthumb 7.28684 -19.2442
lclavicle -7.8023e-015 -5.96354e-015
lhumerus -43.2841 11.9017 79.3798
lradius 25.7094
lwrist -10.5235
lhand -16.6507 27.196
lfingers 7.12502
lthumb 9.57235 56.9585
rfemur 14.3159 -1.44401 22.0231
rtibia 17.5766
rfoot -10.7192 -14.4365
rtoes -15.216
lfemur -22.4508 -1.12622 -22.6233
ltibia 19.0472
lfoot -0.676362 -8.92749
ltoes -7.73916
2969
root -13.1939 17.7445 12.5022 541.646 12.5075 -1261.75
lowerback 11.3602 3.86608 0.890959
upperback 0.958311 5.3061 -0.883576
thorax -5.18216 2.6295 -2.24886
lowerneck -19.5981 -6.91744 -12.1425
upperneck 34.0293 -6.19985 6.89662
head 16.1249 -2.48131 4.08617
rclavicle -7.0171e-014 1.17283e-014
rhumerus -29.6421 -6.87131 -86.9694
rradius 33.5098
rwrist 1.92349
rhand -18.8072 10.6468
rfingers 7.12502
rthumb 7.49126 -19.2005
lclavicle -7.0171e-014 1.17283e-014
lhumerus -42.9538 11.5839 79.6718
lradius 26.0493
lwrist -9.48402
lhand -15.4438 30.1275
lfingers 7.12502
lthumb 10.7367 59.8331
rfemur 13.7337 -1.43902 21.8637
rtibia 19.6183
rfoot -10.1113 -14.1496
rtoes -15.0127
lfemur -21.7212 -0.983247 -22.824
ltibia 18.8481
lfoot -0.921417 -9.17087
ltoes -9.19183
